PathFileType	4	(X/Y/Z)	Demo_SinglePerson_P1_0-412.trc
DataRate	CameraRate	NumFrames	NumMarkers	Units	OrigDataRate	OrigDataStartFrame	OrigNumFrames
29	29	9	22	m	29	0	412
Frame#	Time	Hip			RHip			RKnee			RAnkle			RBigToe			RSmallToe			RHeel			LHip			LKnee			LAnkle			LBigToe			LSmallToe			LHeel			Neck			Head			Nose			RShoulder			RElbow			RWrist			LShoulder			LElbow			LWrist			
		X1	Y1	Z1	X2	Y2	Z2	X3	Y3	Z3	X4	Y4	Z4	X5	Y5	Z5	X6	Y6	Z6	X7	Y7	Z7	X8	Y8	Z8	X9	Y9	Z9	X10	Y10	Z10	X11	Y11	Z11	X12	Y12	Z12	X13	Y13	Z13	X14	Y14	Z14	X15	Y15	Z15	X16	Y16	Z16	X17	Y17	Z17	X18	Y18	Z18	X19	Y19	Z19	X20	Y20	Z20	X21	Y21	Z21	X22	Y22	Z22	
0	0.0	4.636868382601527	-0.08643664827795168	-0.9596966727598762	4.740372589234016	-0.15063384082182532	-1.1346998720123602	4.125107197994021	-0.4655331380097707	-0.8730683485835609	3.670935636929108	-0.6760950615364272	-0.6771031575791931	3.799377954885166	-0.8859527388547186	-0.8298200971274321	3.85401882919399	-0.9274849348545	-0.8758254971747346	3.543990990336236	-0.6823235741027683	-0.5997131750448732	4.522857544367895	-0.028523464830026928	-0.7663475721920314	3.849847586009868	-0.3099828881507343	-0.5388489540457069	3.284485150704225	-0.46187887471465955	-0.3192176170619129	3.1171833796185533	-0.49486404102823867	-0.2533262012870129	3.0475790467798642	-0.42023449510976824	-0.16048210514274597	3.204672587585316	-0.4705520138685775	-0.2819904774125891	5.554527460856561	0.47234492467294176	-1.3203771591181943	5.943830482135992	0.7583202556696095	-1.511031917582393	5.7469758836542235	0.5794401544219991	-1.466975726782597	5.497224766854568	0.29897893082213434	-1.5049345156972478	5.224416983110516	-0.006414617312715941	-1.5111255990357446	5.0516423584092145	-0.28677375185157217	-1.560292633986543	5.328125062035105	0.4524740077787337	-0.9653438744037606	4.867739096168868	0.2765962711813593	-0.6137603921066027	5.057139211129703	0.34067432276296705	-0.7612219179960797
1	0.034482758620689655	4.641728578169091	-0.0915778049665099	-0.9707088864689385	4.74281728572388	-0.15494916621881336	-1.1414688166060611	4.139159312364037	-0.4630981051616701	-0.8820542273869633	3.675305310804546	-0.6772102279799554	-0.6804055588536677	3.7790234776391136	-0.8752009136462278	-0.8136505110193486	3.8461085370337385	-0.9101499098915661	-0.866772759311097	3.550523095125929	-0.6770030392386934	-0.6014516895058892	4.5321338997855785	-0.036988825625493674	-0.7878390514286904	3.864315461371602	-0.3085960838030684	-0.547897869223901	3.3107811780132583	-0.46413712803434726	-0.3358169849996466	3.1382707694352314	-0.49871825326021424	-0.2670848087713519	3.070532672951673	-0.43017514842908083	-0.18032007737076083	3.241378538719029	-0.4772282576880969	-0.3070904794479203	5.558468539662291	0.47780930341618694	-1.317102306735295	5.947731779729623	0.7624280530611264	-1.5109178755086465	5.750486380446812	0.5816278820272688	-1.4694747290839842	5.500227781996726	0.2981979465300012	-1.5103705986736848	5.2654821946561166	0.0034697592737068014	-1.550201347940642	5.150267772798477	-0.29252357276951513	-1.667049320879676	5.325854499530781	0.44889856252714183	-0.9694667597484224	4.875442957885406	0.2818709728744465	-0.6125654082565021	5.077490723652428	0.3537202029625797	-0.7636883499593157
2	0.06896551724137931	4.646588773736655	-0.09671896165506812	-0.9817211001780007	4.745261982213743	-0.1592644916158014	-1.148237761199762	4.153211426734053	-0.4606630723135695	-0.8910401061903657	3.6796749846799837	-0.6783253944234837	-0.6837079601281423	3.7586690003930614	-0.8644490884377369	-0.7974809249112651	3.838198244873487	-0.8928148849286321	-0.8577200214474594	3.557055199915622	-0.6716825043746185	-0.6031902039669053	4.541410255203262	-0.04545418642096042	-0.8093305306653493	3.878783336733336	-0.3072092794554025	-0.5569467844020952	3.3370772053222915	-0.46639538135403497	-0.3524163529373803	3.1593581592519095	-0.5025724654921898	-0.28084341625569087	3.093486299123482	-0.44011580174839343	-0.2001580495987757	3.278084489852742	-0.4839045015076163	-0.3321904814832515	5.562409618468021	0.4832736821594321	-1.3138274543523956	5.951633077323255	0.7665358504526433	-1.5108038334349	5.753996877239401	0.5838156096325384	-1.4719737313853716	5.503230797138883	0.29741696223786807	-1.515806681650122	5.306547406201717	0.013354135860129544	-1.5892770968455394	5.24889318718774	-0.2982733936874581	-1.7738060077728088	5.323583937026457	0.44532311727554996	-0.9735896450930843	4.8831468196019445	0.2871456745675337	-0.6113704244064014	5.097842236175152	0.3667660831621924	-0.7661547819225516
3	0.10344827586206896	4.64379323786515	-0.09462729112183076	-0.9764284812809215	4.731436468805761	-0.16461693096298488	-1.1399143591638947	4.151985158378426	-0.4543032953318955	-0.8856637320388415	3.6812152505137377	-0.6738194379841114	-0.6827308670547815	3.7826697296510994	-0.8684079711944738	-0.8145177544452442	3.8638878112344135	-0.9002965772810294	-0.8769514526025449	3.5495315170585373	-0.6708605739099839	-0.5981637912931517	4.525673752601001	-0.04955733037714669	-0.7990195634987658	3.8784812070414807	-0.3003485829180277	-0.5495709753990881	3.3300230485567566	-0.46254771457040134	-0.34547949087750485	3.167910090011496	-0.4958015187939189	-0.28073303557227886	3.1109292487860687	-0.4416175537122028	-0.21033218673186369	3.2797153964498107	-0.4904841342076395	-0.33780292095864867	5.56916999945994	0.49325104162797584	-1.3069926441837079	5.963455341869552	0.7808612689655225	-1.5064869079130503	5.774013384146126	0.6035853783031596	-1.4729144803530532	5.5125773068271195	0.3083367837425963	-1.5144022485619906	5.364637017004501	0.038977641675021726	-1.6341538928626937	5.340616044681054	-0.2488555323094332	-1.840411367256126	5.319722399299373	0.4498143227488	-0.9563523488185319	4.898821816355284	0.29994513917832105	-0.6035019593562604	5.131938248427069	0.3929493057116478	-0.7595985109451219
4	0.13793103448275862	4.645066054633552	-0.08528433042398807	-0.9664969243467265	4.738593446780683	-0.15153961963363713	-1.1338107357001368	4.154802971841534	-0.4409220125089345	-0.8782775428184084	3.687553215438541	-0.6635846220726763	-0.6822544029000618	3.762801267621673	-0.843809242999514	-0.7951009812946853	3.8402501781453666	-0.879234390913692	-0.8560847087661042	3.5450086997062207	-0.6551420425139137	-0.5883076961841915	4.538179090465599	-0.03935852683125663	-0.7974327854521189	3.893720855719215	-0.29443254400002017	-0.55446892970338	3.344635920449202	-0.463899644820262	-0.35482888295197745	3.1808774610803905	-0.49811140364187656	-0.289242737291751	3.1162789586776185	-0.43883185929944196	-0.21083686145798575	3.300332280180954	-0.4904772430081708	-0.3493131779075113	5.577944349016698	0.5059273749907316	-1.2984357238749589	5.968431321127772	0.793842091872965	-1.4896486973808174	5.7756834264591355	0.6144464372586095	-1.4556514187311076	5.5184503848455195	0.31929865306010136	-1.507752883973301	5.394306486337187	0.05648932669301509	-1.6531832741076602	5.441984253877939	-0.2115289169753272	-1.9283300610730247	5.324617004469559	0.4536117257940567	-0.9563397870108686	4.9238283073224745	0.3209561913989726	-0.588775019861175	5.1440178168725685	0.4176362387496655	-0.7159204329334867
5	0.1724137931034483	4.6657411889881715	-0.08037391149796622	-0.9815549335925918	4.74858019094106	-0.1425494949331138	-1.1345595307508458	4.169201207626909	-0.44171891742446234	-0.8898889942370868	3.696357727317348	-0.6665200499956186	-0.6892773030766397	3.7435043210905086	-0.8325099762447674	-0.7792671029466436	3.8301232957493294	-0.8720888346735446	-0.8475110928374523	3.56890564474173	-0.6637144745271853	-0.607024015029622	4.563147213578882	-0.030511352850571542	-0.8106457456093037	3.900657614030651	-0.2994689297301669	-0.5648729761886798	3.3693875357132193	-0.4716948594327908	-0.3749079681102343	3.209509889417914	-0.5125126627473868	-0.31439513952764364	3.1348853499771083	-0.4514041626281797	-0.23055251706174196	3.3205090477694426	-0.5022983225170202	-0.36893193466706814	5.586797100822972	0.5133208307683025	-1.3000142523249771	5.97371406621629	0.7968140908532848	-1.4950503491410674	5.773242707680963	0.616147020929884	-1.4477348529228424	5.525939183248419	0.3373637640535496	-1.4931955766557734	5.426391132457614	0.08273102248419813	-1.6666873585863493	5.531226728181905	-0.16778158529166343	-2.001432408891619	5.334929997489098	0.4645567129161561	-0.9493689583169982	4.938490236981225	0.32975726449510784	-0.5895917868747037	5.158302461445647	0.42708427844300456	-0.7166337283046571
6	0.20689655172413793	4.6480177506773215	-0.08806583942122195	-0.9728397121189455	4.739212400820709	-0.14714806893844537	-1.1299347967521802	4.165145707577827	-0.4408712394785048	-0.8861650859650393	3.668840730757586	-0.6621909782743096	-0.6695630201398802	3.747961819047986	-0.8350944562625878	-0.7829209240902907	3.849478498920306	-0.8681447948442669	-0.8597834957774394	3.5561962075432154	-0.6587608815099044	-0.596886230045489	4.547687985157742	-0.04001285061488456	-0.8081327314915747	3.891553282115624	-0.3046335554898142	-0.5635842258924622	3.366165280827345	-0.482519818066589	-0.38101547020892296	3.2363222778464134	-0.5232106519707728	-0.33600690561083596	3.1474383885179074	-0.4664580411911515	-0.24870361232837027	3.3226137474495534	-0.5132626784982903	-0.37754934182901334	5.579213620227903	0.5058945241089068	-1.300748112967695	5.955878749325731	0.7861067052719867	-1.4783796077092255	5.772223957652131	0.6191941996258529	-1.439921153209582	5.515496255565014	0.3276699683844919	-1.491508282292543	5.4612546742557235	0.08668967274825591	-1.7067897345741105	5.623952385424202	-0.11365904143510201	-2.074394786342327	5.325925603999222	0.45495711266938227	-0.9555660776715841	4.939561705372241	0.3299300686084127	-0.5909607656320564	5.182064624085424	0.4520729725392531	-0.6911032435893216
7	0.2413793103448276	4.659985436192304	-0.0849140490515336	-0.9811743167505788	4.7396857424472385	-0.14578271101170392	-1.129003147746337	4.15300026366659	-0.4469919648143516	-0.881258409548725	3.6819168468065837	-0.6691479233980501	-0.6811140958290519	3.732278330974647	-0.8403012596616337	-0.7738877805861345	3.825972511015306	-0.8769951385220043	-0.8458314491223735	3.5679764086565475	-0.669319644374137	-0.6089421090851793	4.563538213193697	-0.03882973787034855	-0.8228008469406316	3.909910200797693	-0.3123527096348274	-0.5849332336625316	3.3792656799629093	-0.4894109080704518	-0.39352985920849476	3.2433986250497218	-0.5419459856063571	-0.3516809959716646	3.1542063978046233	-0.4782447280341123	-0.26099616195659997	3.3380829254480657	-0.5193355449215848	-0.3903590750295905	5.567874026446967	0.4948422073115846	-1.3017298544712679	5.952037628275395	0.7809383950343878	-1.4810420725882172	5.771542832088261	0.613124770462324	-1.4502541631856793	5.504121015036561	0.316147350628051	-1.491040623944838	5.476452454025884	0.08222806475451462	-1.7305468574865068	5.686959141504585	-0.06489733153429404	-2.1172299888115234	5.312612210125324	0.44326618858766836	-0.9587536587173924	4.951941176009749	0.3378451099255018	-0.5903648815400927	5.203666881723423	0.4637545751428091	-0.6998435406590482
8	0.27586206896551724	4.6610040302592015	-0.08314168366425236	-0.9800749795623475	4.7445899922758015	-0.14580834116637625	-1.1339231970402397	4.148209906390779	-0.44519418119450566	-0.8763167361136538	3.668128838008583	-0.6591586421982882	-0.6677228120981825	3.708633241085905	-0.8282532265658297	-0.7550787056789402	3.8091974579657575	-0.8765605332932058	-0.8343369090375582	3.5503131764996017	-0.6623194175112112	-0.5948508268454138	4.566563542254786	-0.038031888159647455	-0.8248085351222586	3.9022669948843256	-0.316185654278927	-0.5832128908788845	3.3835443827765324	-0.49726200378420343	-0.4015415746770132	3.2263527301651123	-0.540149276071187	-0.34122398674464083	3.1463881966379086	-0.4757333794763434	-0.2550442193575846	3.336832013157191	-0.5293616554164342	-0.3961430213636768	5.577679728957196	0.49863152153329954	-1.311798351506771	5.953776919056784	0.7796450551568783	-1.487690654422014	5.7667651623750835	0.6106891526351912	-1.445775022581939	5.509233240122077	0.3078439203174564	-1.5101865672606176	5.521675126089868	0.08569122529942044	-1.7847872389074504	5.742765048843915	-0.003494608833904851	-2.1426639689138547	5.316683747516887	0.44422172195692144	-0.9638167571196995	4.967586140287545	0.3478925227955951	-0.5895198506016167	5.222718440773784	0.4768515900680356	-0.6994535152986181
